<mxfile host="app.diagrams.net" modified="2021-02-08T09:57:38.160Z" agent="5.0 (Windows NT 10.0; Win64; x64) AppleWebKit/537.36 (KHTML, like Gecko) Chrome/88.0.4324.146 Safari/537.36" etag="52uCK8acoyfJdy2I9_dk" version="14.2.9" type="github">
  <diagram id="C5RBs43oDa-KdzZeNtuy" name="Page-1">
    <mxGraphModel dx="1865" dy="548" grid="1" gridSize="10" guides="1" tooltips="1" connect="1" arrows="1" fold="1" page="1" pageScale="1" pageWidth="827" pageHeight="1169" math="0" shadow="0">
      <root>
        <mxCell id="WIyWlLk6GJQsqaUBKTNV-0" />
        <mxCell id="WIyWlLk6GJQsqaUBKTNV-1" parent="WIyWlLk6GJQsqaUBKTNV-0" />
        <mxCell id="xtv-nvjAz-4Mjd69wW55-44" value="" style="rounded=1;whiteSpace=wrap;html=1;" vertex="1" parent="WIyWlLk6GJQsqaUBKTNV-1">
          <mxGeometry x="-140" y="10" width="920" height="760" as="geometry" />
        </mxCell>
        <mxCell id="xtv-nvjAz-4Mjd69wW55-42" value="&lt;b&gt;&lt;font style=&quot;font-size: 16px&quot;&gt;Defect Triage&amp;nbsp;&lt;/font&gt;&lt;/b&gt;" style="rounded=1;whiteSpace=wrap;html=1;" vertex="1" parent="WIyWlLk6GJQsqaUBKTNV-1">
          <mxGeometry x="238" y="10" width="120" height="60" as="geometry" />
        </mxCell>
        <mxCell id="xtv-nvjAz-4Mjd69wW55-43" value="" style="group" vertex="1" connectable="0" parent="WIyWlLk6GJQsqaUBKTNV-1">
          <mxGeometry x="-42" y="104" width="680" height="640" as="geometry" />
        </mxCell>
        <mxCell id="WIyWlLk6GJQsqaUBKTNV-2" value="" style="rounded=0;html=1;jettySize=auto;orthogonalLoop=1;fontSize=11;endArrow=block;endFill=0;endSize=8;strokeWidth=1;shadow=0;labelBackgroundColor=none;edgeStyle=orthogonalEdgeStyle;" parent="xtv-nvjAz-4Mjd69wW55-43" source="WIyWlLk6GJQsqaUBKTNV-3" edge="1">
          <mxGeometry relative="1" as="geometry">
            <mxPoint x="220" y="90" as="targetPoint" />
          </mxGeometry>
        </mxCell>
        <mxCell id="WIyWlLk6GJQsqaUBKTNV-3" value="Open" style="rounded=1;whiteSpace=wrap;html=1;fontSize=12;glass=0;strokeWidth=1;shadow=0;" parent="xtv-nvjAz-4Mjd69wW55-43" vertex="1">
          <mxGeometry x="160" width="120" height="40" as="geometry" />
        </mxCell>
        <mxCell id="WIyWlLk6GJQsqaUBKTNV-7" value="Root Cause Analysis" style="rounded=1;whiteSpace=wrap;html=1;fontSize=12;glass=0;strokeWidth=1;shadow=0;" parent="xtv-nvjAz-4Mjd69wW55-43" vertex="1">
          <mxGeometry x="360" y="90" width="120" height="40" as="geometry" />
        </mxCell>
        <mxCell id="WIyWlLk6GJQsqaUBKTNV-8" value="High" style="rounded=1;html=1;jettySize=auto;orthogonalLoop=1;fontSize=11;endArrow=block;endFill=0;strokeWidth=1;shadow=0;labelBackgroundColor=none;edgeStyle=orthogonalEdgeStyle;exitX=1;exitY=0.5;exitDx=0;exitDy=0;" parent="xtv-nvjAz-4Mjd69wW55-43" source="WIyWlLk6GJQsqaUBKTNV-12" edge="1">
          <mxGeometry x="-0.1429" y="10" relative="1" as="geometry">
            <mxPoint as="offset" />
            <mxPoint x="290" y="199.70999999999998" as="sourcePoint" />
            <mxPoint x="360" y="199.70999999999998" as="targetPoint" />
          </mxGeometry>
        </mxCell>
        <mxCell id="WIyWlLk6GJQsqaUBKTNV-11" value="Retest" style="rounded=1;whiteSpace=wrap;html=1;fontSize=12;glass=0;strokeWidth=1;shadow=0;" parent="xtv-nvjAz-4Mjd69wW55-43" vertex="1">
          <mxGeometry x="160" y="360" width="120" height="40" as="geometry" />
        </mxCell>
        <mxCell id="WIyWlLk6GJQsqaUBKTNV-12" value="Priority" style="rounded=1;whiteSpace=wrap;html=1;fontSize=12;glass=0;strokeWidth=1;shadow=0;" parent="xtv-nvjAz-4Mjd69wW55-43" vertex="1">
          <mxGeometry x="160" y="180" width="120" height="40" as="geometry" />
        </mxCell>
        <mxCell id="xtv-nvjAz-4Mjd69wW55-0" value="Defect&amp;nbsp; Analysis" style="rounded=1;whiteSpace=wrap;html=1;fontSize=12;glass=0;strokeWidth=1;shadow=0;" vertex="1" parent="xtv-nvjAz-4Mjd69wW55-43">
          <mxGeometry x="160" y="90" width="120" height="40" as="geometry" />
        </mxCell>
        <mxCell id="xtv-nvjAz-4Mjd69wW55-4" value="" style="endArrow=classic;html=1;entryX=0;entryY=0.5;entryDx=0;entryDy=0;" edge="1" parent="xtv-nvjAz-4Mjd69wW55-43" target="WIyWlLk6GJQsqaUBKTNV-7">
          <mxGeometry width="50" height="50" relative="1" as="geometry">
            <mxPoint x="280" y="110" as="sourcePoint" />
            <mxPoint x="330" y="60" as="targetPoint" />
          </mxGeometry>
        </mxCell>
        <mxCell id="xtv-nvjAz-4Mjd69wW55-5" value="Corrective and Preventive Action" style="rounded=1;whiteSpace=wrap;html=1;fontSize=12;glass=0;strokeWidth=1;shadow=0;" vertex="1" parent="xtv-nvjAz-4Mjd69wW55-43">
          <mxGeometry x="560" y="90" width="120" height="40" as="geometry" />
        </mxCell>
        <mxCell id="xtv-nvjAz-4Mjd69wW55-6" value="" style="endArrow=classic;html=1;entryX=0;entryY=0.5;entryDx=0;entryDy=0;" edge="1" parent="xtv-nvjAz-4Mjd69wW55-43">
          <mxGeometry width="50" height="50" relative="1" as="geometry">
            <mxPoint x="480" y="109.71000000000001" as="sourcePoint" />
            <mxPoint x="560" y="109.71000000000001" as="targetPoint" />
          </mxGeometry>
        </mxCell>
        <mxCell id="xtv-nvjAz-4Mjd69wW55-7" value="History" style="rounded=1;whiteSpace=wrap;html=1;fontSize=12;glass=0;strokeWidth=1;shadow=0;" vertex="1" parent="xtv-nvjAz-4Mjd69wW55-43">
          <mxGeometry x="560" width="120" height="40" as="geometry" />
        </mxCell>
        <mxCell id="xtv-nvjAz-4Mjd69wW55-8" value="" style="endArrow=classic;html=1;entryX=0;entryY=0.5;entryDx=0;entryDy=0;exitX=0.5;exitY=0;exitDx=0;exitDy=0;" edge="1" parent="xtv-nvjAz-4Mjd69wW55-43" source="xtv-nvjAz-4Mjd69wW55-5">
          <mxGeometry width="50" height="50" relative="1" as="geometry">
            <mxPoint x="619.71" y="100.29000000000002" as="sourcePoint" />
            <mxPoint x="619.71" y="30.000000000000043" as="targetPoint" />
          </mxGeometry>
        </mxCell>
        <mxCell id="xtv-nvjAz-4Mjd69wW55-9" value="" style="endArrow=classic;html=1;entryX=0.5;entryY=0;entryDx=0;entryDy=0;exitX=0.5;exitY=1;exitDx=0;exitDy=0;" edge="1" parent="xtv-nvjAz-4Mjd69wW55-43" source="xtv-nvjAz-4Mjd69wW55-0" target="WIyWlLk6GJQsqaUBKTNV-12">
          <mxGeometry width="50" height="50" relative="1" as="geometry">
            <mxPoint x="290" y="120" as="sourcePoint" />
            <mxPoint x="370" y="120" as="targetPoint" />
          </mxGeometry>
        </mxCell>
        <mxCell id="xtv-nvjAz-4Mjd69wW55-10" value="Impact Analysis" style="rounded=1;whiteSpace=wrap;html=1;fontSize=12;glass=0;strokeWidth=1;shadow=0;" vertex="1" parent="xtv-nvjAz-4Mjd69wW55-43">
          <mxGeometry x="360" y="180" width="120" height="40" as="geometry" />
        </mxCell>
        <mxCell id="xtv-nvjAz-4Mjd69wW55-11" value="RTM" style="rounded=1;whiteSpace=wrap;html=1;fontSize=12;glass=0;strokeWidth=1;shadow=0;" vertex="1" parent="xtv-nvjAz-4Mjd69wW55-43">
          <mxGeometry x="560" y="180" width="120" height="40" as="geometry" />
        </mxCell>
        <mxCell id="xtv-nvjAz-4Mjd69wW55-14" value="" style="endArrow=classic;html=1;entryX=0;entryY=0.5;entryDx=0;entryDy=0;" edge="1" parent="xtv-nvjAz-4Mjd69wW55-43">
          <mxGeometry width="50" height="50" relative="1" as="geometry">
            <mxPoint x="480" y="199.70999999999998" as="sourcePoint" />
            <mxPoint x="560" y="199.70999999999998" as="targetPoint" />
          </mxGeometry>
        </mxCell>
        <mxCell id="xtv-nvjAz-4Mjd69wW55-15" value="Resolved" style="rounded=1;whiteSpace=wrap;html=1;fontSize=12;glass=0;strokeWidth=1;shadow=0;" vertex="1" parent="xtv-nvjAz-4Mjd69wW55-43">
          <mxGeometry x="160" y="270" width="120" height="40" as="geometry" />
        </mxCell>
        <mxCell id="xtv-nvjAz-4Mjd69wW55-16" value="" style="endArrow=classic;html=1;entryX=0.5;entryY=0;entryDx=0;entryDy=0;exitX=0.5;exitY=1;exitDx=0;exitDy=0;" edge="1" parent="xtv-nvjAz-4Mjd69wW55-43" source="WIyWlLk6GJQsqaUBKTNV-12" target="xtv-nvjAz-4Mjd69wW55-15">
          <mxGeometry width="50" height="50" relative="1" as="geometry">
            <mxPoint x="219.71" y="210" as="sourcePoint" />
            <mxPoint x="219.71" y="260" as="targetPoint" />
          </mxGeometry>
        </mxCell>
        <mxCell id="xtv-nvjAz-4Mjd69wW55-18" value="" style="endArrow=classic;html=1;entryX=0.5;entryY=0;entryDx=0;entryDy=0;exitX=0.5;exitY=1;exitDx=0;exitDy=0;" edge="1" parent="xtv-nvjAz-4Mjd69wW55-43">
          <mxGeometry width="50" height="50" relative="1" as="geometry">
            <mxPoint x="219.71" y="310" as="sourcePoint" />
            <mxPoint x="219.71" y="360" as="targetPoint" />
          </mxGeometry>
        </mxCell>
        <mxCell id="xtv-nvjAz-4Mjd69wW55-19" value="Reopen" style="rounded=1;whiteSpace=wrap;html=1;fontSize=12;glass=0;strokeWidth=1;shadow=0;" vertex="1" parent="xtv-nvjAz-4Mjd69wW55-43">
          <mxGeometry x="350" y="360" width="120" height="40" as="geometry" />
        </mxCell>
        <mxCell id="xtv-nvjAz-4Mjd69wW55-20" value="" style="endArrow=classic;html=1;" edge="1" parent="xtv-nvjAz-4Mjd69wW55-43">
          <mxGeometry width="50" height="50" relative="1" as="geometry">
            <mxPoint x="284" y="384" as="sourcePoint" />
            <mxPoint x="347" y="384" as="targetPoint" />
          </mxGeometry>
        </mxCell>
        <mxCell id="xtv-nvjAz-4Mjd69wW55-21" value="" style="endArrow=classic;html=1;exitX=0.5;exitY=0;exitDx=0;exitDy=0;entryX=1;entryY=0.5;entryDx=0;entryDy=0;" edge="1" parent="xtv-nvjAz-4Mjd69wW55-43" source="xtv-nvjAz-4Mjd69wW55-19" target="xtv-nvjAz-4Mjd69wW55-15">
          <mxGeometry width="50" height="50" relative="1" as="geometry">
            <mxPoint x="293.84000000000003" y="394.4799999999999" as="sourcePoint" />
            <mxPoint x="310" y="290" as="targetPoint" />
            <Array as="points">
              <mxPoint x="410" y="290" />
            </Array>
          </mxGeometry>
        </mxCell>
        <mxCell id="xtv-nvjAz-4Mjd69wW55-22" value="Closed" style="rounded=1;whiteSpace=wrap;html=1;fontSize=12;glass=0;strokeWidth=1;shadow=0;" vertex="1" parent="xtv-nvjAz-4Mjd69wW55-43">
          <mxGeometry x="160" y="485" width="120" height="40" as="geometry" />
        </mxCell>
        <mxCell id="xtv-nvjAz-4Mjd69wW55-23" value="Regression" style="rounded=1;whiteSpace=wrap;html=1;fontSize=12;glass=0;strokeWidth=1;shadow=0;" vertex="1" parent="xtv-nvjAz-4Mjd69wW55-43">
          <mxGeometry x="360" y="485" width="120" height="40" as="geometry" />
        </mxCell>
        <mxCell id="xtv-nvjAz-4Mjd69wW55-24" value="" style="endArrow=classic;html=1;exitX=0.5;exitY=1;exitDx=0;exitDy=0;" edge="1" parent="xtv-nvjAz-4Mjd69wW55-43" source="xtv-nvjAz-4Mjd69wW55-11">
          <mxGeometry width="50" height="50" relative="1" as="geometry">
            <mxPoint x="630" y="310" as="sourcePoint" />
            <mxPoint x="420" y="480.9142717633929" as="targetPoint" />
            <Array as="points">
              <mxPoint x="620" y="440" />
              <mxPoint x="440" y="440" />
            </Array>
          </mxGeometry>
        </mxCell>
        <mxCell id="xtv-nvjAz-4Mjd69wW55-25" value="" style="endArrow=classic;html=1;entryX=0.5;entryY=0;entryDx=0;entryDy=0;exitX=0.5;exitY=1;exitDx=0;exitDy=0;" edge="1" parent="xtv-nvjAz-4Mjd69wW55-43" target="xtv-nvjAz-4Mjd69wW55-22">
          <mxGeometry width="50" height="50" relative="1" as="geometry">
            <mxPoint x="219.71000000000004" y="400" as="sourcePoint" />
            <mxPoint x="219.71000000000004" y="450" as="targetPoint" />
          </mxGeometry>
        </mxCell>
        <mxCell id="xtv-nvjAz-4Mjd69wW55-26" value="" style="endArrow=classic;html=1;entryX=0;entryY=0.5;entryDx=0;entryDy=0;" edge="1" parent="xtv-nvjAz-4Mjd69wW55-43" target="xtv-nvjAz-4Mjd69wW55-23">
          <mxGeometry width="50" height="50" relative="1" as="geometry">
            <mxPoint x="280" y="505" as="sourcePoint" />
            <mxPoint x="343" y="504" as="targetPoint" />
          </mxGeometry>
        </mxCell>
        <mxCell id="xtv-nvjAz-4Mjd69wW55-27" value="Closed" style="rounded=1;whiteSpace=wrap;html=1;fontSize=12;glass=0;strokeWidth=1;shadow=0;" vertex="1" parent="xtv-nvjAz-4Mjd69wW55-43">
          <mxGeometry x="560" y="485" width="120" height="40" as="geometry" />
        </mxCell>
        <mxCell id="xtv-nvjAz-4Mjd69wW55-28" value="" style="endArrow=classic;html=1;entryX=0;entryY=0.5;entryDx=0;entryDy=0;" edge="1" parent="xtv-nvjAz-4Mjd69wW55-43">
          <mxGeometry width="50" height="50" relative="1" as="geometry">
            <mxPoint x="480" y="504.71000000000004" as="sourcePoint" />
            <mxPoint x="560" y="504.71000000000004" as="targetPoint" />
          </mxGeometry>
        </mxCell>
        <mxCell id="xtv-nvjAz-4Mjd69wW55-29" value="" style="endArrow=classic;html=1;" edge="1" parent="xtv-nvjAz-4Mjd69wW55-43">
          <mxGeometry width="50" height="50" relative="1" as="geometry">
            <mxPoint x="620" y="525" as="sourcePoint" />
            <mxPoint x="620" y="590.29" as="targetPoint" />
          </mxGeometry>
        </mxCell>
        <mxCell id="xtv-nvjAz-4Mjd69wW55-31" value="Release" style="rounded=1;whiteSpace=wrap;html=1;fontSize=12;glass=0;strokeWidth=1;shadow=0;" vertex="1" parent="xtv-nvjAz-4Mjd69wW55-43">
          <mxGeometry x="560" y="590" width="120" height="40" as="geometry" />
        </mxCell>
        <mxCell id="xtv-nvjAz-4Mjd69wW55-33" value="Reopen" style="rounded=1;whiteSpace=wrap;html=1;fontSize=12;glass=0;strokeWidth=1;shadow=0;" vertex="1" parent="xtv-nvjAz-4Mjd69wW55-43">
          <mxGeometry x="360" y="600" width="120" height="40" as="geometry" />
        </mxCell>
        <mxCell id="xtv-nvjAz-4Mjd69wW55-34" value="" style="endArrow=classic;html=1;" edge="1" parent="xtv-nvjAz-4Mjd69wW55-43">
          <mxGeometry width="50" height="50" relative="1" as="geometry">
            <mxPoint x="419.71000000000004" y="525" as="sourcePoint" />
            <mxPoint x="420" y="600" as="targetPoint" />
          </mxGeometry>
        </mxCell>
        <mxCell id="xtv-nvjAz-4Mjd69wW55-35" value="" style="endArrow=classic;html=1;edgeStyle=elbowEdgeStyle;elbow=vertical;endFill=1;entryX=0;entryY=0.25;entryDx=0;entryDy=0;" edge="1" parent="xtv-nvjAz-4Mjd69wW55-43" target="WIyWlLk6GJQsqaUBKTNV-3">
          <mxGeometry width="50" height="50" relative="1" as="geometry">
            <mxPoint y="620" as="sourcePoint" />
            <mxPoint x="150" y="20" as="targetPoint" />
            <Array as="points">
              <mxPoint x="120" y="10" />
              <mxPoint x="40" y="10" />
            </Array>
          </mxGeometry>
        </mxCell>
        <mxCell id="xtv-nvjAz-4Mjd69wW55-36" value="" style="endArrow=none;html=1;entryX=0;entryY=0.5;entryDx=0;entryDy=0;" edge="1" parent="xtv-nvjAz-4Mjd69wW55-43" target="xtv-nvjAz-4Mjd69wW55-33">
          <mxGeometry width="50" height="50" relative="1" as="geometry">
            <mxPoint y="620" as="sourcePoint" />
            <mxPoint x="280" y="580" as="targetPoint" />
          </mxGeometry>
        </mxCell>
        <mxCell id="xtv-nvjAz-4Mjd69wW55-37" value="" style="endArrow=classic;html=1;exitX=0;exitY=0.5;exitDx=0;exitDy=0;" edge="1" parent="xtv-nvjAz-4Mjd69wW55-43" source="WIyWlLk6GJQsqaUBKTNV-12">
          <mxGeometry width="50" height="50" relative="1" as="geometry">
            <mxPoint x="230" y="210" as="sourcePoint" />
            <mxPoint x="100" y="200" as="targetPoint" />
          </mxGeometry>
        </mxCell>
        <mxCell id="xtv-nvjAz-4Mjd69wW55-38" value="Defered" style="rounded=1;whiteSpace=wrap;html=1;fontSize=12;glass=0;strokeWidth=1;shadow=0;" vertex="1" parent="xtv-nvjAz-4Mjd69wW55-43">
          <mxGeometry x="20" y="180" width="80" height="40" as="geometry" />
        </mxCell>
        <mxCell id="xtv-nvjAz-4Mjd69wW55-39" value="Fixed" style="rounded=1;whiteSpace=wrap;html=1;fontSize=12;glass=0;strokeWidth=1;shadow=0;" vertex="1" parent="xtv-nvjAz-4Mjd69wW55-43">
          <mxGeometry x="15" y="270" width="85" height="40" as="geometry" />
        </mxCell>
        <mxCell id="xtv-nvjAz-4Mjd69wW55-40" value="" style="endArrow=classic;html=1;exitX=0;exitY=0.5;exitDx=0;exitDy=0;" edge="1" parent="xtv-nvjAz-4Mjd69wW55-43">
          <mxGeometry width="50" height="50" relative="1" as="geometry">
            <mxPoint x="160" y="289.71" as="sourcePoint" />
            <mxPoint x="100" y="289.71" as="targetPoint" />
          </mxGeometry>
        </mxCell>
        <mxCell id="xtv-nvjAz-4Mjd69wW55-41" style="edgeStyle=elbowEdgeStyle;rounded=1;orthogonalLoop=1;jettySize=auto;elbow=vertical;html=1;exitX=1;exitY=0.75;exitDx=0;exitDy=0;startArrow=classicThin;startFill=1;" edge="1" parent="xtv-nvjAz-4Mjd69wW55-43" source="xtv-nvjAz-4Mjd69wW55-39" target="xtv-nvjAz-4Mjd69wW55-39">
          <mxGeometry relative="1" as="geometry" />
        </mxCell>
      </root>
    </mxGraphModel>
  </diagram>
</mxfile>
